<?xml version="1.0" encoding="utf-8"?>
<!-- Generator: Adobe Illustrator 19.0.0, SVG Export Plug-In . SVG Version: 6.00 Build 0)  -->
<svg version="1.1" id="Layer_1" xmlns="http://www.w3.org/2000/svg" xmlns:xlink="http://www.w3.org/1999/xlink" x="0px" y="0px"
	 viewBox="0 0 960 560" style="enable-background:new 0 0 960 560;" xml:space="preserve">
<style type="text/css">
	.st0{fill:none;}
	.st1{font-family:'TitanOne';}
	.st2{font-size:75px;}
	.st3{fill:#FF2500;}
	.st4{fill:none;stroke:#592502;stroke-width:5;stroke-miterlimit:10;}
	.st5{fill:none;stroke:#753205;stroke-width:4;stroke-miterlimit:10;}
	.st6{fill:#FF2500;stroke:#FF2500;stroke-width:3;stroke-miterlimit:10;}
	.st7{fill:#FF5500;}
	.st8{fill:#F99900;}
	.st9{fill:#FF9100;}
	.st10{fill:#F2F217;}
</style>
<rect id="XMLID_2_" x="63.4" y="153.8" class="st0" width="436" height="69.6"/>
<text id="XMLID_1_" transform="matrix(1 0 0 1 63.3997 212.2998)" class="st1 st2">THE FLOOR</text>
<rect id="XMLID_5_" x="59" y="151.6" class="st0" width="436" height="69.6"/>
<text id="XMLID_4_" transform="matrix(1 0 0 1 58.9997 210.0998)" class="st3 st1 st2">THE FLOOR</text>
<ellipse id="XMLID_9_" class="st4" cx="472.8" cy="305.8" rx="122.2" ry="16.4"/>
<ellipse id="XMLID_8_" class="st5" cx="472.6" cy="305" rx="126" ry="19.6"/>
<ellipse id="XMLID_10_" class="st6" cx="473" cy="305.7" rx="118.3" ry="13"/>
<g id="XMLID_18_">
	<g id="XMLID_70_">
		<path id="XMLID_71_" d="M373.6,297.1c-2.5-0.2-4.2-0.4-5-0.8c-0.8-0.3-1.2-0.8-1.2-1.5l3.3-46.5c0.1-1.1,1.6-2.1,4.6-3
			c3-0.9,6.2-1.2,9.8-0.9c3.2,0.2,5.2,1,6.1,2.5c0.3,0.5,0.5,1,0.4,1.5l-2.3,33.1c6.1,0,10.7,0.1,13.8,0.4c1,0.1,1.5,1.8,1.2,5.1
			s-0.7,6.2-1.3,8.5c-0.6,2.4-1.3,3.5-2,3.5L373.6,297.1z"/>
		<path id="XMLID_73_" d="M426.5,300c-1.5,0.5-4,0.5-7.7,0.3c-3.7-0.3-6.7-0.8-9.2-1.7c-2.4-0.8-3.6-1.8-3.5-2.8
			c0.1-1.2,2.8-8.7,8.3-22.5c5.4-13.8,8.5-21.7,9.3-23.8c0.3-0.6,2.3-1,6.1-1.2c3.8-0.2,7.9-0.1,12.2,0.2c4.3,0.3,6.6,1.2,7,2.7
			c7.2,32,10.8,48.2,10.8,48.7c0,0.5-0.4,1-1,1.4c-1.5,1-4.3,1.4-8.4,1.1c-8.8-0.6-13.3-2-13.3-4.1l-0.2-4.9l-7.2-0.5l-0.7,4.2
			C428.8,298.6,427.9,299.5,426.5,300z M436.2,279.1l-0.2-13.5l-1.6-0.1l-2.2,13.4L436.2,279.1z"/>
		<path id="XMLID_76_" d="M455.4,254.8c0-0.6,0.7-1.3,2.1-2c1.4-0.7,3.2-1.3,5.7-1.8c2.4-0.5,5-0.6,7.8-0.4c2.8,0.2,4.8,0.7,6.1,1.6
			c1.2,0.9,1.9,1.8,1.9,2.8l0.7,27.4l1,0.1l4.2-26.4c0.2-1.4,2-2.4,5.3-2.9c3.3-0.6,6.3-0.8,9.1-0.6c2.8,0.2,4.8,0.6,6.2,1.1
			c1.3,0.6,2.1,1.1,2.5,1.6c0.3,0.5,0.5,1,0.5,1.4c0,0.4-0.5,1.6-1.3,3.4c-0.9,1.9-1.8,3.9-2.7,6c-3.1,6.8-8.5,19-16,36.6
			c-0.7,1.5-5,2-13,1.4c-2.5-0.2-4.1-0.5-4.9-0.9c-0.8-0.4-1.3-1-1.5-1.9c-2.4-8.7-5.2-18.6-8.5-29.6
			C457,260.7,455.4,255.1,455.4,254.8z"/>
		<path id="XMLID_78_" d="M517.4,306.3c-1.5,0.5-4,0.5-7.7,0.3s-6.7-0.8-9.2-1.7s-3.6-1.8-3.5-2.8c0.1-1.2,2.8-8.7,8.3-22.5
			c5.4-13.8,8.5-21.7,9.3-23.8c0.3-0.6,2.3-1,6.1-1.2c3.8-0.2,7.9-0.1,12.2,0.2c4.3,0.3,6.6,1.2,7,2.7c7.2,32,10.8,48.2,10.8,48.7
			c0,0.5-0.4,1-1,1.4c-1.5,1-4.3,1.4-8.4,1.1c-8.8-0.6-13.3-2-13.3-4.1l-0.2-4.9l-7.2-0.5l-0.7,4.2
			C519.7,304.9,518.8,305.9,517.4,306.3z M527.1,285.5l-0.2-13.5l-1.6-0.1l-2.2,13.4L527.1,285.5z"/>
		<path id="XMLID_87_" d="M563.1,298.8c3.2,0.2,5.7-0.1,7.5-1c1.8-0.9,2.8-1.9,2.9-3.2c2.5-22.5,3.8-34.5,3.9-36
			c0.1-1.1-1.8-1.9-5.7-2.1c-3.9-0.3-7.3-0.3-10.2-0.2c-2.9,0.1-4.4,0.5-4.4,1l-0.6,37.5C556.6,297.1,558.8,298.5,563.1,298.8z"/>
		<path id="XMLID_88_" d="M556.7,311.2c4.6-0.1,10-0.3,14.3-2.2c0.6-0.3,1.3-0.5,1.9-0.5c-0.5-3.3-3.4-5.1-8.6-5.5
			c-6.1-0.4-9.3,1.6-9.6,6.1c-0.1,0.9,0,1.7,0.1,2.4C555.4,311.3,556,311.2,556.7,311.2z"/>
	</g>
	<g id="XMLID_27_">
		<path id="XMLID_28_" class="st3" d="M370.9,292.5c-2.5-0.2-4.2-0.4-5-0.8c-0.8-0.3-1.2-0.8-1.2-1.5l3.3-46.5
			c0.1-1.1,1.6-2.1,4.6-3c3-0.9,6.2-1.2,9.8-0.9c3.2,0.2,5.2,1,6.1,2.5c0.3,0.5,0.5,1,0.4,1.5l-2.3,33.1c6.1,0,10.7,0.1,13.8,0.4
			c1,0.1,1.5,1.8,1.2,5.1c-0.2,3.3-0.7,6.2-1.3,8.5c-0.6,2.4-1.3,3.5-2,3.5L370.9,292.5z"/>
		<path id="XMLID_34_" class="st3" d="M423.8,295.4c-1.5,0.5-4,0.5-7.7,0.3c-3.7-0.3-6.7-0.8-9.2-1.7c-2.4-0.8-3.6-1.8-3.5-2.8
			c0.1-1.2,2.8-8.7,8.3-22.5c5.4-13.8,8.5-21.7,9.3-23.8c0.3-0.6,2.3-1,6.1-1.2c3.8-0.2,7.9-0.1,12.2,0.2c4.3,0.3,6.6,1.2,7,2.7
			c7.2,32,10.8,48.2,10.8,48.7c0,0.5-0.4,1-1,1.4c-1.5,1-4.3,1.4-8.4,1.1c-8.8-0.6-13.3-2-13.3-4.1l-0.2-4.9l-7.2-0.5l-0.7,4.2
			C426.1,294,425.2,294.9,423.8,295.4z M433.5,274.5l-0.2-13.5l-1.6-0.1l-2.2,13.4L433.5,274.5z"/>
		<path id="XMLID_38_" class="st3" d="M452.7,250.2c0-0.6,0.7-1.3,2.1-2c1.4-0.7,3.2-1.3,5.7-1.8c2.4-0.5,5-0.6,7.8-0.4
			c2.8,0.2,4.8,0.7,6.1,1.6c1.2,0.9,1.9,1.8,1.9,2.8l0.7,27.4l1,0.1l4.2-26.4c0.2-1.4,2-2.4,5.3-2.9c3.3-0.6,6.3-0.8,9.1-0.6
			c2.8,0.2,4.8,0.6,6.2,1.1c1.3,0.6,2.1,1.1,2.5,1.6c0.3,0.5,0.5,1,0.5,1.4c0,0.4-0.5,1.6-1.3,3.4c-0.9,1.9-1.8,3.9-2.7,6
			c-3.1,6.8-8.5,19-16,36.6c-0.7,1.5-5,2-13,1.4c-2.5-0.2-4.1-0.5-4.9-0.9c-0.8-0.4-1.3-1-1.5-1.9c-2.4-8.7-5.2-18.6-8.5-29.6
			C454.3,256.1,452.7,250.5,452.7,250.2z"/>
		<path id="XMLID_61_" class="st3" d="M514.7,301.7c-1.5,0.5-4,0.5-7.7,0.3s-6.7-0.8-9.2-1.7s-3.6-1.8-3.5-2.8
			c0.1-1.2,2.8-8.7,8.3-22.5c5.4-13.8,8.5-21.7,9.3-23.8c0.3-0.6,2.3-1,6.1-1.2c3.8-0.2,7.9-0.1,12.2,0.2c4.3,0.3,6.6,1.2,7,2.7
			c7.2,32,10.8,48.2,10.8,48.7c0,0.5-0.4,1-1,1.4c-1.5,1-4.3,1.4-8.4,1.1c-8.8-0.6-13.3-2-13.3-4.1l-0.2-4.9l-7.2-0.5l-0.7,4.2
			C517,300.3,516.1,301.3,514.7,301.7z M524.4,280.9l-0.2-13.5l-1.6-0.1l-2.2,13.4L524.4,280.9z"/>
		<path id="XMLID_84_" class="st3" d="M560.4,294.2c3.2,0.2,5.7-0.1,7.5-1c1.8-0.9,2.8-1.9,2.9-3.2c2.5-22.5,3.8-34.5,3.9-36
			c0.1-1.1-1.8-1.9-5.7-2.1c-3.9-0.3-7.3-0.3-10.2-0.2c-2.9,0.1-4.4,0.5-4.4,1l-0.6,37.5C553.9,292.5,556.1,293.9,560.4,294.2z"/>
		<path id="XMLID_85_" class="st3" d="M554,310.1c0.7,0.5,1.5,0.8,2.5,1.1c0,0,0.1,0,0.1,0c3.9-0.1,8.3-0.2,12.2-1.4
			c0.8-1,1.3-2.3,1.4-4c0.3-4.5-2.6-6.9-8.7-7.4s-9.3,1.6-9.6,6.1C551.9,307.2,552.5,309.1,554,310.1z"/>
	</g>
</g>
<ellipse id="XMLID_11_" class="st7" cx="471.5" cy="305.7" rx="113.5" ry="11"/>
<ellipse id="XMLID_31_" class="st8" cx="472.5" cy="305.2" rx="105.3" ry="9.5"/>
<ellipse id="XMLID_30_" class="st9" cx="469.5" cy="305.2" rx="105.3" ry="9.5"/>
<g id="Layer_2">
	<g id="XMLID_19_">
		<g id="XMLID_39_">
			<path id="XMLID_23_" class="st10" d="M406.8,292.8c-0.6,1.8-0.7,3.8-0.5,5.7c0.1,0.8,0,2,0.7,2.4c1.9,1.1,1.6-2.9,3.4-2.6
				c1.2,0.2,2,6.8,3.3,2.5c0.3-0.9-0.2-2.1,0-3c0.6-2.7,1.5,3.2,1.6,4.2c0-1.6,0-3.3,0-4.9c-0.1,1.2-0.8,6.4,0.9,6.3
				c1.9-0.1,0.1-4.5,2.7-1.9c-0.3,1.1-0.1,1.7,0.9,1.8c0.8-0.3,1.2-1,1.2-2c0.8-0.6,0.7-1.4,1.8-0.3c0.3,0.3-0.1,2.7,1.2,2.4
				c1.2-0.3,0.2-2,1-2.6c1.7-1.2,1.5,2.8,2.9,2.2c1.1-0.5-0.1-7.4-0.3-8.3c0,1.7,0,3.3,0,5c1.6,0.2,2.1,0.5,2.8,2
				c-0.5-1,0-3.7,0-4.9c0-0.6,0-1.1,0-1.7c0,1.6,0,3.3,0,4.9c0.6-1.8,1.4-3,3.2-1.8c0,0,0-0.1,0-0.1c0.1-2.5,2-2.3,3-0.8
				c0-1.4,0-2.8,0-4.3c0,1.6-0.6,3.1-0.4,4.7c0,0.5-0.2,1.3,0,1.7c0.8,1.7,2.1,0.9,2.2,3.4c0-1.6,0-3.3,0-4.9
				c-0.1,0.3-0.2,0.6-0.3,0.9c-0.4,1.1,0.7,4.3,0,5c0.8-0.8,2.6-2.8,3.3-1.3c0-1.7,0-3.3,0-5c-0.1,1.4-0.2,2.8-0.2,4.3
				c0,2.1-0.4,3.1,1.7,2.7c0.8-0.1,0.8-1,1.7-0.8c0.7,0.2,0.2,1.1,0.5,1.2c1.5,0.4,1.2,0.2,2.5-0.7c2.1-1.4,1-1.3,2.5,0.8
				c1.3,1.7,2.3,1.5,3.5,0c0.4-0.5,0.2-1.6,1-2c1.5-0.7,0.9,0.9,1.5,1.6c0.9,0.9,0.3,1.4,1.5,0.7c1.4-0.8,0.2-1.8,2.2-2
				c0.2,0,0.3,1.1,0.9,0.8c0.6-0.2,0.5-0.9,0.7-1.4c0.4-1,0.1-3,0-4c-0.3-2.8-2.3-2.6-3.9-4.4c0,1.6,0,3.3,0,4.9
				c0-0.7,0.9-1.8,1.1-2.8c0.1-0.8,0.1-1.8,0-2.6c-0.2-2.8-1.7-2.2-3-4.6c0,1.7,0,3.3,0,5c1.4-2.1,1.9-2.4,2-4.8
				c0-1.7,0.3-3.3-1.1-4.4c0.8,0.6-0.8,4.4,0,5c0.7,0.3,1.1,0.8,1.1,1.6c0-1.7,0-3.3,0-5c-0.4,1.2-1.2,1.6-1.9,2.7
				c-0.4,0.5-0.3,4.4,0,5c0.7,1.4,2,1.5,2.9,2.7c0-1.7,0-3.3,0-5c-0.1,1-0.9,1.6-1.1,2.7c-0.2,0.8-0.1,2,0,2.8c0,0.5-0.2,1.4,0,1.8
				c1,1.7,2.9,1.2,3.9,3.5c0-1.7,0-3.3,0-5c-0.5,2.4-1.1,0.3-2.1,0.4c-1.8,0.3-0.8,1.8-2,2.4c-2.1,1.1-0.6-2.4-1.9-2.7
				c-1.9-0.5-1.7,2.7-2.9,3.2c-2.1,0.9-2.1-1.6-3.1-2.5c-1.8-1.5-1.2,1.3-3,1.6c-1.6,0.2-1-1.2-1.6-1.4c-1.5-0.5-2.9,2.1-3.9,0.5
				c0,1.6,0,3.3,0,4.9c0.1-1.7,0.3-3.5,0.2-5.2c0-0.3,0.2-1.2,0-1.5c-0.9-1.3-2.3,0.2-3.3,1.2c0,1.7,0,3.3,0,5
				c0.6-1.5,0.4-3.1,0.4-4.7c0-2.5-0.8-2.9-2.3-4.7c0,1.7,0,3.3,0,5c0.4-2.4,2-8.9-1.9-8.2c0.2,0-2.6,1.4-2.5,1.3
				c-1.1,0.7-1.2,1.6-1.4,2.7c-0.2,1.9,0,4.1,0,6c0-1.6,0-3.3,0-4.9c-0.7-1.5-1.2-1.8-2.8-2c0.1,0-0.1,4.5,0,5
				c0.2,0.5,0.3,1.1,0.5,1.6c0-1.7,0-3.3,0-5c-0.4,4.5-1.2-1.3-2.8-0.8c-1.2,0.4,0.1,2.6-1.2,2.9c-1.4,0.3-0.7-2.4-1.5-2.7
				c-1.8-0.9-1,1.4-2,2.2c-1.9,1.3-1-0.8-1.7-1.8c-2-2.5-2.1,4.4-3.5,1.7c0,1.6,0,3.3,0,4.9c0.1-2.5,0.8-7-1.5-8.5c0,0,0,0.1,0,0.1
				c-0.2,2.3-0.1,4.6-0.1,6.9c0-1.6,0-3.1,0-4.7c-2,2.8-2-2.9-3.3-3.2c-1.8-0.5-2.8,5.9-4.1,0.9c0,1.7,0,3.3,0,5
				c0.2-0.5,0.3-0.9,0.5-1.4C407.3,296.3,406.3,294.3,406.8,292.8L406.8,292.8z"/>
		</g>
	</g>
	<g id="XMLID_20_">
		<g id="XMLID_44_">
			<path id="XMLID_22_" class="st10" d="M467.2,293.7c-1.2,1.7-0.7,5.7,0.5,7.3c0-1.6,0-3.1,0-4.7c0,0.6-1,1.2-1.1,1.8
				c-0.2,0.8,0,2.1,0,2.9c0.1,3.1,1.2,1.5,3.5,3c0-1.7,0-3.3,0-5c-0.4,2-0.9,3.5-0.7,5.7c0,0.4-0.2,1.6,0.2,2c1.8,1.9,1.8-1.6,3-1.9
				c2.1-0.5,0.5,2.9,3.1,2c1-0.4,1.5-2.7,2.5-2.2c1.5,0.8-0.1,3,2,1.3c1.1-0.9,1.8-4.4,3.2-1.3c0-1.7,0-3.3,0-5
				c-0.2,1.9-0.8,4.4-0.3,6.3c0.9,3.6,1.4-1.6,2.6-2.1c2-0.8,2.6,5.4,3.2,0.7c0.3-2.2,0.1-4.7-1.2-6.5c0,1.7,0,3.3,0,5
				c0.9-1.4,2.1-0.3,3.4-1.2c0.3-0.2,0.2-4.5,0-5c-0.4-1.4-1.8-1.3-2.5-2.6c0,1.7,0,3.3,0,5c1.2-1.3,2.6-0.3,3.8-1.6
				c0.8-0.9-0.8-4.1,0-5c-1.2,1.3-2.6,0.3-3.8,1.6c-0.3,0.4-0.3,4.5,0,5c0.7,1.3,2.1,1.1,2.5,2.6c0-1.7,0-3.3,0-5
				c-1.3,0.8-2.5-0.2-3.4,1.2c-0.3,0.5-0.3,4.6,0,5c0.7,1,1.1,1.5,1.2,2.8c0-1.7,0-3.3,0-5c-0.7,1.9-0.7,0-1.2-0.6
				c-0.8-0.9-0.5-1.6-2-1.4c-1.2,0.2-2.1,5.2-2.5,2.8c0,1.7,0,3.3,0,5c0.3-1.8,0.5-3.9,0.3-5.8c-0.1-0.6,0.2-1.7-0.5-2.2
				c-1.9-1.3-2,2.5-3.2,2.8c-1.9,0.6-0.4-1.9-1.9-2c-1-0.1-1.4,2.5-2.7,2.6c-1.8,0.1-1-2.8-3-1.9c-0.4,0.2-2.1,4.3-2.8,0.9
				c0,1.7,0,3.3,0,5c0.4-0.6,0.6-1.2,0.7-1.9c0.1-0.6,0.4-4.8,0-5c-1.1-0.7-3.3,0.1-3.5-1.5c0,1.7,0,3.3,0,5
				c2.4-1.8,1.2-5.9,0.3-8.3c0,1.7,0,3.3,0,5c0.1-0.2,0.3-0.4,0.4-0.6C468,297.6,466.4,294.9,467.2,293.7L467.2,293.7z"/>
		</g>
	</g>
	<g id="XMLID_21_">
		<g id="XMLID_50_">
			<path id="XMLID_24_" class="st10" d="M496,297.3c0.2,0.3,0.4,0.6,0.6,0.9c0-1.7,0-3.3,0-5c0.1,0.8-0.2,1.4-0.9,1.9
				c-0.3,0.3-0.3,4.8,0,5c0.7,0.7,1.5,1,2.1,1.8c0-1.7,0-3.3,0-5c-0.7,2.5-1.3,11.1,3.5,8.2c0.7-0.4-0.7-4.6,0-5
				c-0.7,0.2-1.1,0.6-1.2,1.3c-0.2,0.5-0.3,4.8,0,5c0.9,0.6,1.5,1,2.6,0.9c0.4,0,2.4-1.4,2.4-1.4c0.3,0.1,0.6,1.8,1.1,2.2
				c1.2,0.7,1.2-0.1,2.2-0.3c0.9-0.2,0.7-1,1.9-0.7c0.8,0.2,0.8,1.5,1.9,1.8c2.2,0.5,2-2.3,3.7-2.6c2.2-0.4,3.9,4.1,4.4-0.1
				c0.2-1.8,0.3-4-0.7-5.5c0,1.7,0,3.3,0,5c0.7-0.2,1.3-0.5,1.9-0.9c0.2-0.1,0.2-4.7,0-5c-0.2-0.5-0.3-1-0.5-1.6c0,1.6,0,3.3,0,4.9
				c1.4-2.5,2.1-0.2,3.3,0.3c1.7,0.7,4-1.5,4.4,0.2c0-1.7,0-3.3,0-5c-0.2,1.9-0.5,4-0.2,5.8c0.1,0.5-0.2,1.2,0.2,1.6
				c1.2,1.5,3.1-0.4,3.4,2.3c0-1.6,0-3.3,0-4.9c-0.1,1.7-0.5,4.1,0,5.8c0.7,2.7,1.2,0.9,3,0.7c2.2-0.2,2.1,1.9,4.3,1.2
				c0.9-0.3,1.5-1.7,2.6-1.5c1,0.2,0.6,1.2,1.2,1.6c2.2,1.2,1.5-1.5,3.5-1.7c1.8-0.2,2.7,2.6,5,1.2c1.2-0.7,1.3-1.6,1.3-2.8
				c0-0.5,0.4-4,0-4.3c-1.4-0.8-2.5-1.1-2.7-2.8c0,1.7,0,3.3,0,5c0.1-0.6,0.4-1,0.9-1.3c0.2-0.2,0.1-4.9,0-5
				c-1.2-0.5-2.5-0.9-3.5-1.7c0,1.7,0,3.3,0,5c0.2-2.1,2-5.3,0.4-7.4c0.8,1.1-0.8,3.9,0,5c0.1,0.2,0.2,0.3,0.3,0.5c0-1.7,0-3.3,0-5
				c-0.6,1.7-0.8,2.6-0.8,4.4c0,3.1,0.4,2.9,3.6,4.2c0-1.7,0-3.3,0-5c-1.4,1-1,2.9-1,4.4c0,2.5,0.4,3.3,2.8,4.6c0-1.4,0-2.8,0-4.3
				c0,3.9-5.6,0-6.2,0.1c-1,0.1-1.1,1.7-1.9,1.9c-2.3,0.7-0.7-0.8-2.1-1.4c-1.8-0.7-1.8,0.6-3.3,1.1c-1.5,0.5-1.1-0.2-2.2-0.6
				c-0.2-0.7-0.6-1-1.3-0.9c-0.6,0.2-1.2,0.5-1.7,0.9c-1.4,0.1-2,0.7-2.2-1.2c0,1.6,0,3.3,0,4.9c0.1-1.7,0.2-3.4,0.1-5.1
				c0-0.4,0.1-1.3-0.1-1.6c-0.9-1.5-2.6-0.2-3.5-1.8c0,1.7,0,3.3,0,5c0.1-1.9,0.3-3.7,0.2-5.5c0-0.4,0.2-1.2,0-1.5
				c-0.8-1.3-0.3-0.4-1.8-0.3c-1.3,0.1-1.2,0.6-2.6,0.1c-1.1-0.4-1.6-2.6-3.1-0.7c-0.4,0.5-0.2,1-0.2,1.6c-0.2,1.6-0.3,4.1,0.5,5.4
				c0-1.7,0-3.3,0-5c-0.6,0.4-1.2,0.7-1.9,0.9c-0.2,0.1-0.2,4.7,0,5c0.2,0.3,0.4,0.7,0.6,1c0-1.7,0-3.3,0-5
				c-0.3,3.5-2.8-0.6-4.4-0.4c-1.4,0.1-0.8,1.3-1.7,1.9c-1.9,1.2-1.7,0.4-3.3-0.3c-0.2-0.4-0.6-0.8-1-1c-0.7,0.1-1.2,0.4-1.5,1
				c-1.1,0.1-1.2,1.3-2.6,0c-0.4-0.6-0.6-1.2-0.7-1.9c-0.3,0.3-0.5,0.6-0.8,0.8c-1.9,0.2-2.4,1-4.2-0.4c0,1.7,0,3.3,0,5
				c0.1-0.7,0.5-1.2,1.2-1.3c0-1.7,0-3.3,0-5c-1.7,1.1-3.1,0.6-3.8-1.3c0,1.7,0,3.3,0,5c0.2-1.6,0.4-3,0.3-4.7
				c0-2.5-0.3-2.2-2.1-3.9c0,1.7,0,3.3,0,5c1.4-1.5,1.4-6,0.3-7.8C496.7,293.5,495.2,296,496,297.3L496,297.3z"/>
		</g>
	</g>
	<g id="XMLID_25_">
		<g id="XMLID_68_">
			<path id="XMLID_7_" class="st10" d="M559.5,301.4c-0.2,0.2-0.3,0.3-0.3,0.6c-0.2,0.4-0.2,5,0,5c0.9,0.3,1.8,0.5,2.7,0.8
				c0.9,0.3,1.6,0.8,2.5,1.1c1.6,0.5,2.4-0.3,3.1-1.6c0.2-0.4,0-5,0-5c-0.3-0.1-0.6-0.1-0.9,0c0,1.7,0,3.3,0,5
				c0.1-0.4,0.1-0.9,0.2-1.3c0.1-0.5-0.2-4.9,0-5c-0.5,0.1-0.8,0.2-1.3,0.1c0,1.6,0,3.1,0,4.7c0-1.4,0.2-2.9,0-4.4
				c-0.1-0.5,0.1-0.5-0.4-0.7c-0.6-0.2-0.9,0.4-1.3-0.5c0,1.6,0,3.3,0,4.9c0-0.1,0-0.3,0-0.4c0.1-1.5-0.1-3.6,0-4.8
				c-0.1,1.5-0.1,3,0,4.6c0,0.4-0.1,0.8,0.2,1.1c0.5,0.5,1,0,1.5,0.3c0-1.6,0-3.1,0-4.7c0,0.1,0,0.2,0,0.2c0,0.4-0.2,4.6,0,4.7
				c0.5,0.1,0.8,0.1,1.3-0.1c0-1.7,0-3.3,0-5c-0.1,0.4-0.1,0.9-0.2,1.3c-0.1,0.5,0,5,0,5c0.3,0,0.6,0,0.9,0c0-1.7,0-3.3,0-5
				c-0.7,1.3-1.6,2.1-3.1,1.6c-0.8-0.2-1.5-0.7-2.2-1c-0.9-0.4-1.9-0.6-2.9-0.9c0,1.7,0,3.3,0,5c0-0.2,0.2-0.4,0.3-0.6
				c0.3-0.4,0-2,0-2.5C559.5,303.4,559.2,301.7,559.5,301.4L559.5,301.4z"/>
		</g>
	</g>
	<g id="XMLID_3_">
		<g id="XMLID_90_">
			<path id="XMLID_12_" class="st10" d="M557.8,306.3c0.3-0.6,0.7-1.6,1.6-1.5c0.9,0,0.7,1,1.4,1.4c1.6,1,2.6-1.9,4,0.1
				c0.6,0.9,2.1,2.8,2.6,0.8c0.3-1.5,0-3.4,0-4.9c0,0,0-0.1,0-0.1c-2.6,0-5.2,0-7.8,0c0,0,0,5,0,5c0.7,0,7.8-0.3,7.8,0.3
				c0-1.6,0-3.3,0-4.9c-0.9,1.4-1.9-0.1-2.4-0.9c-0.3-0.4-0.6-1-1.1-1.1c-0.6-0.1-1.1,0.5-1.6,0.7c-0.5,0.2-1,0.3-1.5,0
				c-0.4-0.3-0.4-0.8-0.7-1.1c-1-0.9-1.9,0.4-2.2,1.2c-0.3,0.6,0,1.9,0,2.5C557.8,304.5,558.1,305.7,557.8,306.3L557.8,306.3z"/>
		</g>
	</g>
</g>
<g id="IS">
	<rect id="XMLID_17_" x="272.3" y="245.3" class="st0" width="79.9" height="69.6"/>
	<text id="XMLID_15_" transform="matrix(1 0 0 1 272.2664 303.8336)" class="st1 st2">IS </text>
	<rect id="XMLID_14_" x="269.6" y="239.7" class="st0" width="79.9" height="69.6"/>
	<text id="XMLID_13_" transform="matrix(1 0 0 1 269.5997 298.167)" class="st3 st1 st2">IS </text>
</g>
</svg>
